<?xml version="1.0"?>
<svg width="300" height="150" xmlns="http://www.w3.org/2000/svg">
 <!-- Created with Method Draw - http://github.com/duopixel/Method-Draw/ -->

 <g>
  <title>background</title>
  <rect x="-1" y="-1" width="302" height="152" id="canvas_background" fill="#177cb0"/>
 </g>
 <g>
  <title>Layer 1</title>
  <text fill="#ffffff" stroke="#000" stroke-width="0" x="106" y="118.278944" id="svg_1" font-size="39" font-family="Helvetica, Arial, sans-serif" text-anchor="left" xml:space="preserve" font-weight="bold">&#24037;&#20855;</text>
  <path transform="rotate(18 158.5 47.5)" stroke="#000" id="svg_2" d="m128.34201,80.301102c1.773987,0.794197 4.194992,2.6492 6.069992,1.9701c1.229996,-0.439003 1.949997,-2.925499 2.714005,-4.234299c5.750992,-9.838203 12.001999,-21.028 16.550995,-30.601303c0,-0.427101 0.261993,-0.757301 -0.126007,-1.338097c2.544998,-3.596909 4.272003,-7.548904 7.053009,-11.551605c0.87999,-1.271896 1.776001,-3.037003 3.011002,-3.545799l2.281998,-0.826698c2.899994,-0.647705 5.01799,-0.625198 7.039993,1.063599c1.025009,0.860901 1.497009,2.281296 2.488998,3.136299c0.671005,0.584206 3.227005,2.020607 4.17601,1.7985c0.738998,-0.173294 1.347992,-0.819099 1.86499,-1.637299l1.80101,-2.890999c0.505997,-0.822502 0.793991,-1.614204 0.557999,-2.246201c-0.303009,-0.8139 -3.087006,-1.888702 -4.018997,-2.056801c-1.368011,-0.254898 -2.988007,0.181999 -4.381012,-0.092598c-2.737,-0.546402 -3.917999,-2.072903 -4.875992,-4.541203c-6.753006,-3.447201 -15.845001,-5.688099 -26.430008,-2.7971c-2.871994,0.784801 -5.623993,1.3801 -7.511993,2.974701c-0.378006,0.9259 0.369995,1.1106 1.154999,1.099197c-0.613998,0.485703 -1.606003,0.766903 -1.033005,1.906803c6.460007,-2.5765 19.005997,-3.466801 19.858002,1.806999c0.186005,1.174 -1.022995,2.790997 -1.765991,4.126095c-2.344009,4.213005 -5.207001,7.630905 -7.284012,11.44651c-0.771988,0.037697 -0.947998,0.4039 -1.360001,0.644798c-6.742996,8.543297 -14.11499,19.203293 -20.455994,28.765396c-0.844002,1.271797 -2.843002,3.151703 -2.595001,4.284798c0.373001,1.733406 3.441002,2.540405 5.215012,3.336205l0,0z" fill-opacity="null" stroke-opacity="null" stroke-width="0" fill="#fff"/>
  <path stroke="#000" transform="rotate(-87 138.307 43.1258)" id="svg_3" d="m159.725937,39.632706c3.942703,-5.879669 4.735764,-13.903397 2.589783,-20.651264l-7.914429,11.972324l-7.802673,-1.967648l-2.58548,-9.748787l7.895081,-11.94453c-5.43103,-1.772217 -11.41333,0.367321 -15.338852,6.223721c-4.139359,6.17408 -4.817444,14.723949 -2.254517,21.660755l-20.631241,30.773636c-2.196487,3.272141 -1.928909,8.234695 0.594254,11.080635c2.522079,2.844688 6.346588,2.500885 8.541992,-0.771255l20.60762,-30.74337c5.671738,2.371521 12.139755,0.3181 16.298462,-5.884216l0,0z" fill-opacity="null" stroke-opacity="null" stroke-width="0" fill="#fff"/>
 </g>
</svg>